<?xml version="1.0" encoding="iso-8859-1"?>
<!-- Generator: Adobe Illustrator 18.1.1, SVG Export Plug-In . SVG Version: 6.00 Build 0)  -->
<svg version="1.1" id="Capa_1" xmlns="http://www.w3.org/2000/svg" xmlns:xlink="http://www.w3.org/1999/xlink" x="0px" y="0px"
	 viewBox="0 0 289.738 289.738" style="enable-background:new 0 0 289.738 289.738;" xml:space="preserve">
<g>
	<path id="path5126" d="M284.94,0.001c-0.405-0.006-0.81,0.04-1.203,0.139l-56.57,14.143c-2.501,0.625-4.021,3.159-3.396,5.66
		c0.205,0.821,0.63,1.57,1.228,2.168l17.678,17.678l-97.809,97.809L47.06,39.788L64.737,22.11c1.823-1.823,1.823-4.778,0-6.6
		c-0.598-0.598-1.348-1.023-2.168-1.228L5.999,0.139C5.697,0.064,5.388,0.02,5.077,0.006C2.502-0.109,0.321,1.886,0.206,4.461
		c-0.02,0.45,0.025,0.901,0.134,1.339l14.143,56.568c0.626,2.5,3.161,4.02,5.661,3.394c0.819-0.205,1.568-0.629,2.165-1.226
		l17.68-17.678l99.879,99.881v137.928c-0.096,6.762,10.096,6.762,10,0V146.739l99.879-99.881l17.68,17.678
		c1.823,1.822,4.778,1.821,6.6-0.003c0.597-0.598,1.021-1.346,1.226-2.165l14.143-56.568c0.625-2.501-0.895-5.035-3.395-5.66
		C285.653,0.053,285.298,0.006,284.94,0.001z M11.282,11.081L52.31,21.338l-30.771,30.77L11.282,11.081z M278.454,11.081
		l-10.256,41.027l-30.771-30.77L278.454,11.081z M21.907,19.131c-1.38-0.055-2.543,1.019-2.598,2.399
		c-0.048,1.213,0.781,2.285,1.967,2.543l18.385,4.244c1.346,0.311,2.689-0.528,3-1.873c0.311-1.346-0.528-2.689-1.873-3
		c0,0-0.001,0-0.001,0l-18.385-4.242C22.239,19.162,22.074,19.138,21.907,19.131z M268.005,19.131
		c-0.225-0.007-0.451,0.017-0.67,0.07l-18.385,4.242c-1.346,0.31-2.185,1.653-1.875,2.999c0.31,1.346,1.653,2.185,2.999,1.875
		c0,0,0.001,0,0.001,0l18.385-4.244c1.349-0.295,2.203-1.628,1.908-2.977C270.123,19.977,269.149,19.168,268.005,19.131z"/>
</g>
<g>
</g>
<g>
</g>
<g>
</g>
<g>
</g>
<g>
</g>
<g>
</g>
<g>
</g>
<g>
</g>
<g>
</g>
<g>
</g>
<g>
</g>
<g>
</g>
<g>
</g>
<g>
</g>
<g>
</g>
</svg>
