<?xml version="1.0" encoding="utf-8"?>
<!DOCTYPE svg PUBLIC "-//W3C//DTD SVG 1.1//EN" "http://www.w3.org/Graphics/SVG/1.1/DTD/svg11.dtd">
<svg xmlns="http://www.w3.org/2000/svg" xmlns:xlink="http://www.w3.org/1999/xlink" version="1.1" baseProfile="full" width="50" height="50" viewBox="0 0 50.00 50.00" enable-background="new 0 0 50.00 50.00" xml:space="preserve">
	<rect x="0" y="7.62939e-006" fill="#000000" fill-opacity="1" stroke-width="0.2" stroke-linejoin="round" width="50" height="50"/>
	<g>
		<path fill="#FFFFFF" fill-opacity="1" stroke-width="0.2" stroke-linejoin="round" d="M 22.3038,31.3284L 18.3743,31.3284L 18.3743,24.4517L 11.252,24.4517L 11.252,31.3284L 7.32246,31.3284L 7.32246,14.1366L 11.252,14.1366L 11.252,21.0133L 18.3743,21.0133L 18.3743,14.1366L 22.3038,14.1366L 22.3038,31.3284 Z "/>
		<path fill="#FFFFFF" fill-opacity="1" stroke-width="0.2" stroke-linejoin="round" d="M 26.2334,31.3284L 26.2334,14.1366L 32.5191,14.1366C 34.4455,14.1366 35.9261,14.4871 36.9609,15.1881C 37.9958,15.8891 38.5132,16.8766 38.5132,18.1506C 38.5132,19.0742 38.1985,19.8819 37.5692,20.5739C 36.9398,21.266 36.1353,21.7476 35.1554,22.0187L 35.1554,22.0686C 36.3987,22.2196 37.392,22.6718 38.1352,23.4252C 38.8784,24.1786 39.25,25.0964 39.25,26.1785C 39.25,27.7596 38.682,29.0131 37.5461,29.9392C 36.4103,30.8653 34.8587,31.3284 32.8913,31.3284L 26.2334,31.3284 Z M 30.1629,17.0838L 30.1629,21.0133L 31.8245,21.0133C 32.6048,21.0133 33.2188,20.8266 33.6665,20.4531C 34.1142,20.0796 34.3381,19.5653 34.3381,18.9104C 34.3381,17.6927 33.4183,17.0838 31.5789,17.0838L 30.1629,17.0838 Z M 30.1629,23.9605L 30.1629,28.3812L 32.239,28.3812C 33.1241,28.3812 33.8181,28.1785 34.3208,27.773C 34.8235,27.3675 35.0748,26.8143 35.0748,26.1133C 35.0748,25.443 34.828,24.9167 34.3342,24.5342C 33.8405,24.1517 33.1497,23.9605 32.262,23.9605L 30.1629,23.9605 Z "/>
	</g>
	<g>
		<path fill="#FFFFFF" fill-opacity="1" stroke-linejoin="round" d="M 12.8333,44.0833L 7.23332,44.0833L 7.23332,34.75L 9.36665,34.75L 9.36665,42.35L 12.8333,42.35L 12.8333,44.0833 Z "/>
		<path fill="#FFFFFF" fill-opacity="1" stroke-linejoin="round" d="M 22.5,44.0833L 20.2083,44.0833L 19.6083,42.2167L 16.1729,42.2167L 15.5792,44.0833L 13.3,44.0833L 16.6937,34.75L 19.1833,34.75L 22.5,44.0833 Z M 19.0479,40.35L 18.0687,37.2562C 17.9923,37.0215 17.9396,36.7417 17.9104,36.4167L 17.8583,36.4167C 17.8417,36.6903 17.7868,36.9611 17.6937,37.2292L 16.6958,40.35L 19.0479,40.35 Z "/>
		<path fill="#FFFFFF" fill-opacity="1" stroke-linejoin="round" d="M 23.7,44.0833L 23.7,34.75L 27.1125,34.75C 28.1583,34.75 28.9621,34.9403 29.524,35.3208C 30.0858,35.7014 30.3667,36.2375 30.3667,36.9292C 30.3667,37.4306 30.1958,37.8691 29.8542,38.2448C 29.5125,38.6205 29.0757,38.8819 28.5437,39.0292L 28.5437,39.0563C 29.2187,39.1382 29.758,39.3837 30.1614,39.7927C 30.5649,40.2017 30.7666,40.7 30.7666,41.2875C 30.7666,42.1458 30.4583,42.8264 29.8417,43.3292C 29.225,43.8319 28.3826,44.0833 27.3146,44.0833L 23.7,44.0833 Z M 25.8333,36.35L 25.8333,38.4833L 26.7354,38.4833C 27.159,38.4833 27.4923,38.3819 27.7354,38.1792C 27.9785,37.9764 28.1,37.6972 28.1,37.3417C 28.1,36.6806 27.6007,36.35 26.6021,36.35L 25.8333,36.35 Z M 25.8333,40.0833L 25.8333,42.4833L 26.9604,42.4833C 27.441,42.4833 27.8177,42.3733 28.0906,42.1531C 28.3635,41.933 28.5,41.6326 28.5,41.2521C 28.5,40.8882 28.366,40.6024 28.0979,40.3948C 27.8299,40.1872 27.4548,40.0833 26.9729,40.0833L 25.8333,40.0833 Z "/>
		<path fill="#FFFFFF" fill-opacity="1" stroke-linejoin="round" d="M 31.8333,43.7104L 31.8333,41.6833C 32.2097,41.9944 32.618,42.2278 33.0583,42.3833C 33.4986,42.5389 33.943,42.6167 34.3916,42.6167C 34.6555,42.6167 34.8857,42.5917 35.0823,42.5417C 35.2788,42.4917 35.443,42.4226 35.575,42.3344C 35.7069,42.2462 35.8052,42.1424 35.8698,42.0229C 35.9344,41.9035 35.9666,41.7736 35.9666,41.6333C 35.9666,41.4528 35.9153,41.2913 35.8125,41.149C 35.7097,41.0066 35.5694,40.875 35.3916,40.7542C 35.2139,40.6333 35.0031,40.5167 34.7593,40.4042C 34.5156,40.2917 34.2527,40.1771 33.9708,40.0604C 33.2514,39.759 32.7153,39.3903 32.3625,38.9542C 32.0097,38.5181 31.8333,37.9917 31.8333,37.375C 31.8333,36.8917 31.9309,36.4764 32.126,36.1292C 32.3212,35.7819 32.5871,35.4958 32.9239,35.2708C 33.2607,35.0458 33.6507,34.8806 34.0937,34.775C 34.5368,34.6694 35.0062,34.6167 35.5021,34.6167C 35.9882,34.6167 36.4191,34.6455 36.7948,34.7031C 37.1705,34.7608 37.5166,34.8493 37.8333,34.9688L 37.8333,36.8833C 37.6791,36.7722 37.5111,36.6743 37.3291,36.5896C 37.1472,36.5049 36.9597,36.4347 36.7666,36.3792C 36.5736,36.3236 36.3819,36.2826 36.1916,36.2562C 36.0014,36.2299 35.8201,36.2167 35.6479,36.2167C 35.4132,36.2167 35.1993,36.2403 35.0062,36.2875C 34.8132,36.3347 34.6503,36.4014 34.5177,36.4875C 34.3851,36.5736 34.2823,36.6767 34.2094,36.7969C 34.1364,36.917 34.1,37.0514 34.1,37.2C 34.1,37.3556 34.1406,37.4948 34.2218,37.6177C 34.3031,37.7406 34.4187,37.8569 34.5687,37.9667C 34.7187,38.0764 34.9007,38.1844 35.1146,38.2906C 35.3285,38.3969 35.5701,38.5056 35.8396,38.6167C 36.2076,38.7722 36.5382,38.9375 36.8312,39.1125C 37.1243,39.2875 37.3757,39.4851 37.5854,39.7052C 37.7951,39.9253 37.9555,40.1767 38.0666,40.4594C 38.1778,40.742 38.2333,41.0708 38.2333,41.4458C 38.2333,41.9639 38.134,42.3986 37.9354,42.75C 37.7368,43.1014 37.4673,43.3861 37.1271,43.6042C 36.7868,43.8222 36.391,43.9788 35.9396,44.074C 35.4882,44.1691 35.0118,44.2167 34.5104,44.2167C 33.9951,44.2167 33.5052,44.1743 33.0406,44.0896C 32.576,44.0049 32.1736,43.8785 31.8333,43.7104 Z "/>
	</g>
</svg>
