<?xml version="1.0" encoding="utf-8"?>
<!DOCTYPE svg PUBLIC "-//W3C//DTD SVG 1.1//EN" "http://www.w3.org/Graphics/SVG/1.1/DTD/svg11.dtd">
<svg xmlns="http://www.w3.org/2000/svg" xmlns:xlink="http://www.w3.org/1999/xlink" version="1.1" baseProfile="full" width="53" height="53" viewBox="0 0 53.00 53.00" enable-background="new 0 0 53.00 53.00" xml:space="preserve">
	<path fill="#000000" fill-opacity="1" stroke-width="3" stroke-linejoin="round" stroke="#FFFFFF" stroke-opacity="1" d="M 6.5,1.50002L 46.4999,1.50002C 49.2614,1.50002 51.4999,3.73857 51.4999,6.5L 51.4999,46.5C 51.4999,49.2614 49.2614,51.5 46.4999,51.5L 6.5,51.5C 3.73859,51.5 1.5,49.2614 1.5,46.5L 1.5,6.5C 1.5,3.73857 3.73859,1.50002 6.5,1.50002 Z "/>
	<g>
		<path fill="#FFFFFF" fill-opacity="1" stroke-width="0.2" stroke-linejoin="round" d="M 23.8039,32.8284L 19.8743,32.8284L 19.8743,25.9517L 12.752,25.9517L 12.752,32.8284L 8.82251,32.8284L 8.82251,15.6366L 12.752,15.6366L 12.752,22.5133L 19.8743,22.5133L 19.8743,15.6366L 23.8039,15.6366L 23.8039,32.8284 Z "/>
		<path fill="#FFFFFF" fill-opacity="1" stroke-width="0.2" stroke-linejoin="round" d="M 27.7334,32.8284L 27.7334,15.6366L 34.0191,15.6366C 35.9455,15.6366 37.4261,15.9871 38.461,16.6881C 39.4958,17.3891 40.0132,18.3766 40.0132,19.6506C 40.0132,20.5742 39.6985,21.3819 39.0692,22.074C 38.4399,22.766 37.6353,23.2476 36.6555,23.5188L 36.6555,23.5686C 37.8987,23.7196 38.892,24.1718 39.6352,24.9252C 40.3784,25.6786 40.75,26.5964 40.75,27.6785C 40.75,29.2596 40.1821,30.5131 39.0462,31.4392C 37.9103,32.3653 36.3587,32.8284 34.3914,32.8284L 27.7334,32.8284 Z M 31.6629,18.5838L 31.6629,22.5133L 33.3245,22.5133C 34.1048,22.5133 34.7188,22.3266 35.1665,21.9531C 35.6142,21.5796 35.8381,21.0653 35.8381,20.4104C 35.8381,19.1927 34.9184,18.5838 33.0789,18.5838L 31.6629,18.5838 Z M 31.6629,25.4605L 31.6629,29.8812L 33.739,29.8812C 34.6241,29.8812 35.3181,29.6785 35.8208,29.273C 36.3235,28.8675 36.5749,28.3143 36.5749,27.6133C 36.5749,26.943 36.328,26.4167 35.8342,26.0342C 35.3405,25.6517 34.6497,25.4605 33.762,25.4605L 31.6629,25.4605 Z "/>
	</g>
	<g>
		<path fill="#FFFFFF" fill-opacity="1" stroke-linejoin="round" d="M 14.3333,45.5833L 8.73334,45.5833L 8.73334,36.25L 10.8666,36.25L 10.8666,43.85L 14.3333,43.85L 14.3333,45.5833 Z "/>
		<path fill="#FFFFFF" fill-opacity="1" stroke-linejoin="round" d="M 24,45.5833L 21.7083,45.5833L 21.1083,43.7167L 17.6729,43.7167L 17.0792,45.5833L 14.8,45.5833L 18.1937,36.25L 20.6833,36.25L 24,45.5833 Z M 20.5479,41.85L 19.5687,38.7563C 19.4924,38.5215 19.4396,38.2417 19.4104,37.9167L 19.3583,37.9167C 19.3416,38.1903 19.2868,38.4611 19.1937,38.7292L 18.1958,41.85L 20.5479,41.85 Z "/>
		<path fill="#FFFFFF" fill-opacity="1" stroke-linejoin="round" d="M 25.2,45.5833L 25.2,36.25L 28.6125,36.25C 29.6583,36.25 30.4621,36.4403 31.0239,36.8208C 31.5858,37.2014 31.8666,37.7375 31.8666,38.4292C 31.8666,38.9306 31.6958,39.3691 31.3542,39.7448C 31.0125,40.1205 30.5757,40.382 30.0438,40.5292L 30.0438,40.5563C 30.7188,40.6382 31.258,40.8837 31.6614,41.2927C 32.0649,41.7018 32.2667,42.2 32.2667,42.7875C 32.2667,43.6458 31.9583,44.3264 31.3416,44.8292C 30.725,45.332 29.8826,45.5833 28.8146,45.5833L 25.2,45.5833 Z M 27.3333,37.85L 27.3333,39.9833L 28.2354,39.9833C 28.659,39.9833 28.9924,39.882 29.2354,39.6792C 29.4785,39.4764 29.6,39.1972 29.6,38.8417C 29.6,38.1806 29.1006,37.85 28.1021,37.85L 27.3333,37.85 Z M 27.3333,41.5833L 27.3333,43.9833L 28.4604,43.9833C 28.941,43.9833 29.3177,43.8733 29.5906,43.6531C 29.8635,43.433 30,43.1326 30,42.7521C 30,42.3882 29.866,42.1024 29.5979,41.8948C 29.3298,41.6872 28.9548,41.5833 28.4729,41.5833L 27.3333,41.5833 Z "/>
		<path fill="#FFFFFF" fill-opacity="1" stroke-linejoin="round" d="M 33.3333,45.2104L 33.3333,43.1833C 33.7097,43.4945 34.118,43.7278 34.5583,43.8833C 34.9986,44.0389 35.4431,44.1167 35.8917,44.1167C 36.1556,44.1167 36.3857,44.0917 36.5823,44.0417C 36.7788,43.9917 36.9431,43.9226 37.075,43.8344C 37.207,43.7462 37.3052,43.6424 37.3698,43.5229C 37.4344,43.4035 37.4667,43.2736 37.4667,43.1333C 37.4667,42.9528 37.4153,42.7913 37.3125,42.649C 37.2097,42.5066 37.0694,42.375 36.8917,42.2542C 36.7139,42.1333 36.5031,42.0167 36.2593,41.9042C 36.0156,41.7917 35.7527,41.6771 35.4708,41.5604C 34.7514,41.259 34.2153,40.8903 33.8625,40.4542C 33.5097,40.0181 33.3333,39.4917 33.3333,38.875C 33.3333,38.3917 33.4309,37.9764 33.626,37.6292C 33.8212,37.282 34.0872,36.9958 34.424,36.7708C 34.7607,36.5458 35.1507,36.3806 35.5938,36.275C 36.0368,36.1694 36.5062,36.1167 37.0021,36.1167C 37.4882,36.1167 37.9191,36.1455 38.2948,36.2031C 38.6705,36.2608 39.0167,36.3493 39.3333,36.4688L 39.3333,38.3833C 39.1791,38.2722 39.0111,38.1743 38.8292,38.0896C 38.6472,38.0049 38.4597,37.9347 38.2667,37.8792C 38.0736,37.8236 37.8819,37.7827 37.6917,37.7563C 37.5014,37.7299 37.3201,37.7167 37.1479,37.7167C 36.9131,37.7167 36.6993,37.7403 36.5062,37.7875C 36.3132,37.8347 36.1503,37.9014 36.0177,37.9875C 35.8851,38.0736 35.7823,38.1767 35.7094,38.2969C 35.6364,38.417 35.6,38.5514 35.6,38.7C 35.6,38.8556 35.6406,38.9948 35.7219,39.1177C 35.8031,39.2406 35.9188,39.3569 36.0687,39.4667C 36.2188,39.5764 36.4007,39.6844 36.6146,39.7906C 36.8284,39.8969 37.0701,40.0056 37.3395,40.1167C 37.7076,40.2722 38.0381,40.4375 38.3312,40.6125C 38.6243,40.7875 38.8757,40.9851 39.0854,41.2052C 39.2951,41.4254 39.4556,41.6767 39.5667,41.9594C 39.6778,42.242 39.7333,42.5708 39.7333,42.9458C 39.7333,43.4639 39.634,43.8986 39.4354,44.25C 39.2368,44.6014 38.9673,44.8861 38.6271,45.1042C 38.2868,45.3222 37.8909,45.4788 37.4396,45.574C 36.9882,45.6691 36.5118,45.7167 36.0104,45.7167C 35.4951,45.7167 35.0052,45.6743 34.5406,45.5896C 34.076,45.5049 33.6736,45.3785 33.3333,45.2104 Z "/>
	</g>
</svg>
